<?xml version="1.0" standalone="no"?>
<!DOCTYPE svg PUBLIC "-//W3C//DTD SVG 20010904//EN"
 "http://www.w3.org/TR/2001/REC-SVG-20010904/DTD/svg10.dtd">
<svg version="1.0" xmlns="http://www.w3.org/2000/svg"
 width="500.000000pt" height="500.000000pt" viewBox="0 0 500.000000 500.000000"
 preserveAspectRatio="xMidYMid meet">

<g transform="translate(0.000000,500.000000) scale(0.100000,-0.100000)"
fill="#000000" stroke="none">
<path d="M2345 2512 c-76 -37 -115 -96 -115 -178 0 -152 163 -240 302 -162 43
25 51 43 46 114 l-3 49 -62 3 -63 3 0 -36 c0 -40 -15 -45 -50 -17 -30 24 -30
70 0 94 27 22 46 23 82 4 27 -14 28 -14 58 36 25 40 29 53 18 60 -71 48 -152
59 -213 30z"/>
<path d="M2698 2523 l-48 -4 0 -185 0 -184 65 0 64 0 3 63 3 62 35 -62 35 -63
78 0 79 0 -23 38 c-12 20 -31 49 -42 65 -18 27 -18 28 3 73 46 93 4 174 -99
194 -29 5 -65 9 -80 8 -14 -1 -47 -3 -73 -5z m130 -131 c-2 -9 -13 -18 -26
-20 -17 -3 -22 1 -22 21 0 13 3 27 6 30 12 11 45 -14 42 -31z"/>
<path d="M1876 2468 c-8 -29 -33 -113 -54 -185 l-40 -133 78 0 c74 0 79 1 82
23 2 17 10 23 40 25 32 3 37 0 40 -20 3 -21 8 -23 81 -26 42 -2 77 -2 77 0 0
2 -24 84 -54 183 l-53 180 -91 3 -90 3 -16 -53z m117 -140 c5 -33 3 -38 -13
-38 -11 0 -18 6 -16 13 3 6 7 25 11 41 7 35 10 32 18 -16z"/>
<path d="M3050 2335 l0 -185 70 0 70 0 0 185 0 185 -70 0 -70 0 0 -185z"/>
<path d="M2593 2006 c-100 -48 -137 -171 -80 -268 57 -97 203 -126 290 -57
l26 20 -31 48 -32 48 -35 -14 c-42 -18 -75 -6 -93 32 -10 22 -8 30 9 53 24 33
52 38 90 18 29 -14 29 -14 57 30 32 51 30 66 -15 89 -55 29 -127 29 -186 1z"/>
<path d="M1730 1960 l0 -60 50 0 50 0 0 -125 0 -125 70 0 70 0 0 125 0 125 50
0 50 0 0 60 0 60 -170 0 -170 0 0 -60z"/>
<path d="M2130 1835 l0 -185 151 0 150 0 -3 53 -3 52 -77 3 c-97 4 -103 22 -8
22 l70 0 0 55 0 55 -70 0 c-56 0 -70 3 -70 15 0 12 15 15 75 15 l75 0 0 50 0
50 -145 0 -145 0 0 -185z"/>
<path d="M2890 1835 l0 -185 65 0 64 0 3 63 3 62 43 3 42 3 0 -65 0 -66 70 0
70 0 0 185 0 185 -70 0 -70 0 0 -66 0 -65 -42 3 -43 3 -3 63 -3 62 -64 0 -65
0 0 -185z"/>
</g>
</svg>
